<?xml version="1.0" standalone="no"?>
<!DOCTYPE svg PUBLIC "-//W3C//DTD SVG 20010904//EN"
 "http://www.w3.org/TR/2001/REC-SVG-20010904/DTD/svg10.dtd">
<svg version="1.0" xmlns="http://www.w3.org/2000/svg"
 width="227.000000pt" height="400.000000pt" viewBox="0 0 227.000000 400.000000"
 preserveAspectRatio="xMidYMid meet">

<g transform="translate(0.000000,400.000000) scale(0.100000,-0.100000)"
fill="#000000" stroke="none">
<path d="M33 3982 c-3 -7 4 -20 16 -28 19 -14 21 -24 21 -120 0 -93 -2 -106
-22 -126 -21 -21 -21 -22 -2 -28 10 -4 65 -8 121 -9 116 -2 123 2 123 78 0 54
-29 57 -53 6 -15 -31 -21 -35 -57 -35 l-40 0 0 114 c0 106 2 115 20 121 27 9
25 35 -2 37 -80 6 -121 3 -125 -10z"/>
<path d="M445 3988 c-21 -12 -19 -25 5 -33 18 -6 20 -15 20 -117 0 -85 -3
-113 -14 -122 -34 -26 -22 -38 41 -41 53 -3 64 -1 73 15 8 15 6 20 -10 25 -18
6 -20 15 -20 120 0 91 3 114 15 119 8 3 15 13 15 23 0 15 -9 18 -55 19 -30 0
-61 -4 -70 -8z"/>
<path d="M716 3967 c-3 -16 -6 -40 -6 -53 0 -36 36 -31 55 7 10 19 22 29 33
27 15 -3 17 -19 20 -115 2 -105 1 -112 -18 -118 -11 -3 -20 -15 -20 -26 0 -17
8 -19 75 -19 67 0 75 2 75 19 0 10 -9 21 -20 24 -19 5 -20 14 -20 121 0 111 1
116 21 116 14 0 24 -10 32 -30 7 -18 19 -30 30 -30 16 0 18 7 15 53 l-3 52
-132 0 -131 1 -6 -29z"/>
<path d="M1130 3943 c0 -44 3 -53 18 -53 10 0 22 12 29 30 8 20 18 30 32 30
20 0 21 -5 21 -111 0 -103 -2 -112 -22 -129 -13 -10 -20 -21 -16 -25 3 -4 37
-7 74 -8 56 -2 69 1 72 14 2 10 -5 19 -18 22 -19 5 -20 13 -20 121 0 116 0
116 24 116 18 0 27 -8 35 -30 14 -42 51 -42 51 -1 0 16 -4 41 -10 55 l-9 25
-131 -2 -130 -2 0 -52z"/>
<path d="M1545 3982 c-5 -14 10 -31 28 -32 4 0 7 -49 7 -110 0 -97 -2 -112
-20 -130 -12 -12 -19 -24 -16 -28 3 -4 57 -9 122 -11 133 -3 134 -2 134 72 0
58 -21 64 -51 12 -18 -30 -26 -35 -60 -35 l-39 0 0 115 c0 114 0 115 25 121
14 3 25 13 25 23 0 23 -146 26 -155 3z"/>
<path d="M1950 3982 c0 -11 7 -22 15 -26 12 -4 15 -27 15 -121 0 -94 -3 -117
-15 -121 -8 -4 -15 -12 -15 -19 0 -15 72 -24 174 -22 76 2 84 9 85 75 1 43
-28 44 -53 1 -16 -27 -22 -30 -59 -27 -42 3 -42 3 -45 45 l-3 42 48 3 c41 3
48 6 51 25 3 20 -2 22 -45 25 l-48 3 -3 43 -3 42 44 0 c37 0 46 -4 55 -25 7
-15 20 -25 32 -25 19 0 21 5 18 46 l-3 46 -122 5 c-118 5 -123 4 -123 -15z"/>
<path d="M14 3315 c-13 -32 4 -43 68 -47 35 -1 525 -2 1090 -2 l1026 1 1
-1084 c1 -597 4 -1089 7 -1094 7 -12 41 -11 49 1 8 14 9 2215 1 2229 -5 7
-348 11 -1122 11 -980 0 -1115 -2 -1120 -15z"/>
<path d="M15 2931 c-8 -14 -10 -2215 -1 -2229 5 -9 277 -11 1124 -9 l1117 2 0
25 c0 23 -4 25 -60 30 -33 3 -525 5 -1092 5 l-1033 -2 1 1084 c0 596 -3 1088
-6 1093 -8 13 -42 13 -50 1z"/>
<path d="M1120 2856 c-100 -36 -185 -87 -108 -65 60 17 333 6 322 -13 -4 -5
-27 -9 -53 -7 -25 1 -102 2 -171 1 l-124 -2 100 -99 c118 -117 130 -143 145
-320 9 -119 5 -141 -30 -141 -9 0 -80 32 -158 70 -137 67 -145 73 -180 127
-36 54 -38 60 -38 138 0 76 3 88 37 154 31 58 34 70 18 61 -37 -20 -67 -73
-74 -131 -6 -56 -39 -147 -95 -264 -54 -111 -64 -140 -71 -205 -16 -141 33
-404 91 -485 15 -22 38 -57 49 -79 12 -21 73 -89 135 -151 108 -106 118 -114
192 -140 124 -43 155 -57 208 -97 33 -25 61 -38 82 -38 39 0 43 6 46 67 2 32
18 79 47 138 116 241 167 513 132 700 -42 219 -150 381 -339 505 -46 30 -83
57 -83 60 0 3 30 11 66 18 72 14 182 60 203 85 28 35 4 52 -131 97 -81 27
-171 33 -218 16z"/>
<path d="M895 2703 c-55 -100 -58 -211 -7 -286 25 -36 50 -52 165 -109 75 -38
141 -68 147 -68 7 0 9 19 6 58 -3 31 -8 86 -11 122 -9 94 -29 130 -135 235
-112 112 -126 116 -165 48z m100 -89 c19 -30 35 -57 35 -60 0 -3 25 -51 56
-106 30 -55 53 -102 51 -105 -12 -11 -94 102 -133 183 -74 152 -78 197 -9 88z"/>
<path d="M1552 340 c-43 -10 -88 -53 -103 -98 -7 -20 -9 -61 -6 -95 5 -51 10
-65 40 -94 63 -64 179 -64 232 -1 48 57 56 154 17 220 -32 55 -111 85 -180 68z
m69 -50 c24 0 49 -66 49 -128 0 -54 -4 -67 -25 -88 -68 -68 -153 57 -115 170
12 37 42 59 68 50 8 -2 18 -4 23 -4z"/>
<path d="M20 321 c0 -10 9 -21 20 -24 19 -5 20 -14 20 -121 0 -105 -2 -116
-20 -126 -11 -6 -20 -17 -20 -25 0 -12 22 -15 129 -15 l128 0 7 46 c9 68 8 74
-12 74 -11 0 -27 -14 -38 -35 -17 -32 -23 -35 -62 -35 l-43 0 3 118 c3 113 4
117 26 120 14 2 22 10 22 23 0 17 -8 19 -80 19 -72 0 -80 -2 -80 -19z"/>
<path d="M435 330 c-8 -14 3 -30 21 -30 21 0 21 -238 -1 -246 -8 -4 -15 -15
-15 -25 0 -18 9 -19 129 -19 l129 0 6 31 c3 17 6 42 6 55 0 36 -36 31 -55 -6
-14 -27 -21 -30 -60 -30 l-45 0 0 44 0 45 48 3 c40 3 47 6 50 25 3 18 -3 23
-31 28 -18 4 -42 5 -53 3 -21 -3 -29 20 -20 58 6 21 12 24 50 24 38 0 45 -3
50 -25 5 -18 13 -25 31 -25 21 0 25 5 25 28 0 73 1 72 -136 72 -71 0 -125 -4
-129 -10z"/>
<path d="M866 324 c-9 -23 -8 -24 15 -24 21 0 22 -2 15 -117 -5 -84 -11 -121
-22 -129 -8 -6 -14 -19 -14 -28 0 -13 11 -16 60 -16 53 0 60 2 60 20 0 11 -7
20 -15 20 -12 0 -15 16 -15 87 0 48 4 83 8 77 5 -5 19 -38 32 -74 38 -107 48
-122 77 -118 23 3 30 15 62 102 32 86 37 95 42 70 4 -16 7 -54 8 -85 1 -49 -2
-57 -19 -62 -11 -3 -20 -12 -20 -21 0 -13 13 -16 75 -16 67 0 75 2 75 19 0 10
-9 21 -20 24 -16 4 -20 14 -20 44 0 21 -3 75 -7 121 -5 72 -4 82 11 82 9 0 16
8 16 20 0 18 -7 20 -60 20 -54 0 -61 -3 -69 -22 -52 -149 -64 -178 -70 -178
-4 0 -22 45 -41 100 l-33 100 -62 0 c-48 0 -64 -4 -69 -16z"/>
<path d="M1910 321 c0 -11 8 -22 18 -25 15 -5 17 -19 16 -108 -1 -133 -1 -138
-19 -138 -8 0 -15 -9 -15 -20 0 -18 7 -20 65 -20 57 0 65 2 65 19 0 10 -9 21
-20 24 -18 5 -20 14 -20 76 0 39 3 71 8 71 4 0 38 -43 76 -95 59 -82 72 -95
97 -95 l29 0 0 145 c0 122 2 145 15 145 8 0 15 9 15 20 0 18 -7 20 -60 20 -53
0 -60 -2 -60 -20 0 -11 7 -20 15 -20 12 0 15 -16 15 -82 0 -46 -4 -78 -9 -72
-4 5 -38 51 -75 102 l-68 92 -44 0 c-37 0 -44 -3 -44 -19z"/>
</g>
</svg>
